<?xml version="1.0" encoding="utf-8"?>
<!-- Generator: Adobe Illustrator 26.5.0, SVG Export Plug-In . SVG Version: 6.00 Build 0)  -->
<svg version="1.1" id="Layer_1" xmlns="http://www.w3.org/2000/svg" xmlns:xlink="http://www.w3.org/1999/xlink" x="0px" y="0px"
	 viewBox="0 0 100 100" style="enable-background:new 0 0 100 100;" xml:space="preserve">
<style type="text/css">
	.st0{fill:#F2F2F2;}
	.st1{display:none;}
	.st2{display:inline;}
</style>
<g>
	<g>
		<path class="st0" d="M93,56.5H7c-3.6,0-6.5-2.9-6.5-6.5v0c0-3.6,2.9-6.5,6.5-6.5h86c3.6,0,6.5,2.9,6.5,6.5v0
			C99.5,53.6,96.6,56.5,93,56.5z"/>
	</g>
	<g>
		<path class="st0" d="M93,27.4H7c-3.6,0-6.5-2.9-6.5-6.5v0c0-3.6,2.9-6.5,6.5-6.5h86c3.6,0,6.5,2.9,6.5,6.5v0
			C99.5,24.5,96.6,27.4,93,27.4z"/>
	</g>
	<g>
		<path class="st0" d="M93,85.6H7c-3.6,0-6.5-2.9-6.5-6.5v0c0-3.6,2.9-6.5,6.5-6.5h86c3.6,0,6.5,2.9,6.5,6.5v0
			C99.5,82.7,96.6,85.6,93,85.6z"/>
	</g>
</g>
<g class="st1">
	<g class="st2">
		<path class="st0" d="M26.8,82.4l55.6-55.6c2.5-2.5,2.5-6.7,0-9.2l0,0c-2.5-2.5-6.7-2.5-9.2,0L17.6,73.2c-2.5,2.5-2.5,6.7,0,9.2
			l0,0C20.2,84.9,24.3,84.9,26.8,82.4z"/>
	</g>
	<g class="st2">
		<g>
			<path class="st0" d="M73.2,82.4L17.6,26.8c-2.5-2.5-2.5-6.7,0-9.2l0,0c2.5-2.5,6.7-2.5,9.2,0l55.6,55.6c2.5,2.5,2.5,6.7,0,9.2
				l0,0C79.8,84.9,75.7,84.9,73.2,82.4z"/>
		</g>
	</g>
</g>
</svg>
