<?xml version="1.0" encoding="UTF-8"?>
<svg id="Layer_1" data-name="Layer 1" xmlns="http://www.w3.org/2000/svg" viewBox="0 0 99 72.222">
  <defs>
    <style>
      .cls-1 {
        fill-rule: evenodd;
      }

      .cls-1, .cls-2 {
        fill: #f2f2f2;
      }
    </style>
  </defs>
  <path class="cls-1" d="M13.889,71.972c-2.662,0-5.163-1.037-7.043-2.919-1.882-1.88-2.919-4.382-2.919-7.043V10.212c0-2.663,1.037-5.164,2.919-7.043C8.725,1.286,11.227,.25,13.889,.25H85.111c2.663,0,5.164,1.037,7.043,2.919,1.882,1.879,2.919,4.38,2.919,7.043V62.011c0,2.661-1.037,5.163-2.919,7.043-1.879,1.882-4.381,2.919-7.043,2.919H13.889Zm-2.986-9.963c0,.79,.319,1.56,.875,2.11,.553,.558,1.322,.877,2.112,.877H85.112c.789,0,1.559-.319,2.11-.875,.558-.554,.877-1.323,.877-2.112V11.723s-32.22,26.849-32.22,26.849c-1.788,1.489-4.054,2.31-6.379,2.31s-4.591-.82-6.379-2.31L10.903,11.723V62.01Zm36.684-28.793c.536,.447,1.215,.692,1.912,.692s1.375-.246,1.912-.692L82.602,7.225H16.398l31.188,25.992Z"/>
  <path class="cls-2" d="M85.111,.5c2.577,0,5.047,1.023,6.866,2.846,1.823,1.82,2.846,4.289,2.846,6.866V62.01c0,2.577-1.023,5.047-2.846,6.866-1.82,1.823-4.289,2.846-6.866,2.846H13.889c-2.577,0-5.047-1.023-6.866-2.846-1.823-1.82-2.846-4.289-2.846-6.866V10.212c0-2.577,1.023-5.047,2.846-6.866,1.82-1.823,4.289-2.846,6.866-2.846H85.111m-1.82,6.475H15.708l31.719,26.434c.6,.5,1.336,.751,2.072,.751s1.471-.25,2.072-.751L83.292,6.975M49.5,40.631c-2.209,0-4.417-.75-6.219-2.251L10.653,11.19V62.009c0,.858,.34,1.684,.949,2.289,.605,.609,1.431,.949,2.289,.949H85.112c.858,0,1.684-.34,2.289-.949,.609-.605,.949-1.431,.949-2.289V11.19s-32.63,27.19-32.63,27.19c-1.802,1.501-4.01,2.251-6.219,2.251M85.111,0H13.889c-2.729,0-5.294,1.063-7.22,2.992-1.929,1.926-2.992,4.49-2.992,7.22V62.01c0,2.729,1.063,5.294,2.992,7.22,1.926,1.929,4.49,2.992,7.22,2.992H85.111c2.729,0,5.294-1.063,7.22-2.992,1.929-1.926,2.992-4.49,2.992-7.22V10.212c0-2.729-1.063-5.294-2.992-7.22-1.926-1.929-4.49-2.992-7.22-2.992h0ZM17.089,7.475H81.91l-30.66,25.55c-.491,.409-1.113,.635-1.752,.635s-1.26-.225-1.752-.635L17.089,7.475h0ZM49.5,41.131c2.384,0,4.707-.84,6.539-2.367l31.809-26.507V62.009c.001,.723-.291,1.428-.8,1.934-.508,.512-1.213,.804-1.936,.804H13.89c-.723,0-1.428-.292-1.934-.801-.512-.508-.804-1.213-.804-1.936V12.257l31.809,26.507c1.832,1.526,4.154,2.367,6.539,2.367h0Z"/>
</svg>