<?xml version="1.0" encoding="UTF-8"?>
<svg xmlns="http://www.w3.org/2000/svg" version="1.1" xmlns:xlink="http://www.w3.org/1999/xlink" viewBox="0 0 1872 1872">
  <!-- Generator: Adobe Illustrator 30.0.0, SVG Export Plug-In . SVG Version: 2.1.1 Build 123)  -->
  <defs>
    <style>
      .st0 {
        fill: #fff;
      }

      .st1 {
        fill: blue;
      }

      .st2 {
        fill: none;
      }

      .st3 {
        fill: aqua;
      }

      .st3, .st4 {
        display: none;
      }

      .st5 {
        fill: #ccc;
      }

      .st6 {
        clip-path: url(#clippath);
      }
    </style>
    <clipPath id="clippath">
      <rect class="st2" x="144" y="90" width="1575" height="1575"/>
    </clipPath>
  </defs>
  <g id="base" class="st4">
    <g class="st4">
      <g>
        <path class="st1" d="M-2801.428,661.642l-1.549,143.694-143.654-1.552c.837-79.367,65.875-142.981,145.203-142.142Z"/>
        <path class="st1" d="M-2659.284,806.885c-.839,79.328-65.876,142.981-145.203,142.142l1.509-143.691.04-.003,143.654,1.552Z"/>
        <path class="st1" d="M-2160.768,895.989c-1.983-2.347-3.926-4.696-5.829-7.048-41.331,317.762-314.756,561.652-643.203,558.122l-2.219,208.695-.04.003c-65.523-.716-129.281-8.842-190.431-23.632-4.061,15.211-8.569,30.928-13.521,47.192-.91-.225-1.811-.467-2.72-.693,1.305,8.331-1.97,17.444-10.18,21.321,69.246,17.49,141.585,27.202,216.079,27.997,137.229,1.48,267.88-27.248,385.648-79.965-1.051-4.639-2.088-9.677-3.078-15.237-9.309-51.928-4.431-112.81,6.047-153.908,7.142-27.648,38.725-48.43,70.108-50.935,51.58-4.103,98.906,9.01,178.006-10.752,41.136-10.34,34.887-71.873,21.634-114.3-13.097-42.477,20.449-53.652,18.97-71.344-.785-9.88,2.761-17.481-22.725-30.781,43.573-27.283,26.555-49.174,17.229-66.728-33.474-62.64-.526-64.368,12.172-70.395,12.7-5.988,47.716-14.745,49.748-43.744,2.191-29.009-44.677-80.234-81.694-123.868Z"/>
        <path class="st1" d="M-2804.487,949.026l-5.353,498.039c-55.826-.613-109.948-8.311-161.435-22.278.07-24.09-1.305-47.689-4.037-71.323-4.523-39.311-28.893-82.231-77.136-139.43-48.253-57.358-125.219-194.087-150.742-308.113-7.175-32.085-10.362-67.932-9.799-105.013l266.358,2.875c-.876,79.37,62.777,144.406,142.144,145.243Z"/>
        <path class="st1" d="M-2200.324,763.75c-5.907,16.285-7.29,32.243-4.938,47.965l-453.984-4.873c.105-11.571-1.128-22.858-3.647-33.664-1.824-8.019-4.31-15.797-7.454-23.255-1.311-3.067-2.701-6.129-4.163-9.067-1.002-1.97-2.004-3.941-3.08-5.826l-.042-.037c-1.079-1.926-2.195-3.809-3.348-5.65-.04.003-.042-.037-.042-.037-1.732-2.801-3.579-5.516-5.503-8.185l-.042-.037c-1.62-2.29-3.357-4.533-5.169-6.691-.564-.722-1.168-1.441-1.772-2.161-1.811-2.158-3.697-4.232-5.66-6.261,0,0-.04.003-.042-.037-1.496-1.58-3.028-3.118-4.599-4.614-.805-.747-1.612-1.533-2.457-2.277-.805-.747-1.647-1.451-2.45-2.158-24.857-21.634-57.197-34.86-92.711-35.243l3.594-334.354c4.86-.706,9.767-1.296,14.677-1.846,154.443-16.996,280.36-8.38,383.625,48.685,103.304,57.063,152.797,152.265,173.872,236.346,21.115,84.079,45.607,97.442,25.336,153.276Z"/>
      </g>
    </g>
    <g class="st4">
      <g>
        <path class="st1" d="M776.604,569.26l-.757,146.073-146.033-.76c.399-80.682,66.148-145.715,146.79-145.314Z"/>
        <path class="st1" d="M921.921,716.09c-.402,80.641-66.149,145.715-146.79,145.314l.716-146.07.04-.003,146.033.76Z"/>
        <path class="st1" d="M1429.169,803.826c-2.029-2.375-4.017-4.751-5.966-7.131-40.204,323.24-316.752,572.711-650.639,570.993l-1.068,212.151-.04.003c-66.608-.355-131.465-8.252-193.708-22.938-4.042,15.485-8.535,31.487-13.476,48.048-.927-.223-1.843-.464-2.768-.689,1.374,8.461-1.903,17.743-10.226,21.731,70.488,17.384,144.076,26.844,219.803,27.229,139.502.723,272.145-29.223,391.556-83.48-1.095-4.709-2.178-9.825-3.216-15.471-9.758-52.732-5.146-114.646,5.27-156.482,7.103-28.145,39.088-49.449,70.975-52.175,52.407-4.465,100.59,8.596,180.882-11.942,41.756-10.745,35.054-73.258,21.34-116.31-13.555-43.103,20.481-54.654,18.877-72.629-.854-10.038,2.707-17.785-23.275-31.16,44.136-27.981,26.713-50.137,17.133-67.927-34.383-63.483-.901-65.427,11.972-71.626,12.876-6.159,48.419-15.26,50.32-44.749,2.062-29.5-45.871-81.304-83.747-125.446Z"/>
        <path class="st1" d="M775.131,861.404l-2.606,506.287c-56.751-.305-111.809-7.823-164.226-21.727-.066-24.488-1.598-48.469-4.51-72.477-4.821-39.934-29.838-83.423-79.203-141.291-49.376-58.029-128.39-196.576-154.983-312.338-7.476-32.574-10.92-68.994-10.558-106.69l270.769,1.406c-.439,80.685,64.635,146.432,145.317,146.83Z"/>
        <path class="st1" d="M1388.208,669.631c-5.912,16.587-7.226,32.817-4.747,48.785l-461.503-2.369c.041-11.762-1.277-23.228-3.899-34.199-1.899-8.141-4.471-16.033-7.709-23.596-1.35-3.11-2.78-6.215-4.283-9.193-1.03-1.997-2.06-3.994-3.164-5.905l-.043-.038c-1.108-1.951-2.253-3.859-3.436-5.724-.04.003-.043-.038-.043-.038-1.777-2.838-3.67-5.586-5.64-8.289l-.043-.038c-1.66-2.318-3.439-4.588-5.292-6.772-.578-.731-1.195-1.459-1.813-2.186-1.854-2.184-3.782-4.281-5.789-6.332,0,0-.04.003-.043-.038-1.529-1.598-3.096-3.152-4.701-4.664-.822-.754-1.648-1.549-2.511-2.3-.822-.754-1.683-1.466-2.502-2.179-25.39-21.85-58.339-35.109-94.442-35.297l1.75-339.891c4.936-.746,9.921-1.373,14.909-1.96,156.894-18.156,284.938-10.114,390.232,47.305,105.334,57.416,156.185,153.907,178.086,239.256,21.942,85.346,46.915,98.79,26.627,155.661Z"/>
      </g>
    </g>
    <g id="logo" class="st4">
      <path class="st5" d="M774.5,876.654c86.795,0,157.154-70.359,157.154-157.154h-157.154v157.154Z"/>
      <path class="st5" d="M617.346,719.5h157.154v-157.154c-86.795,0-157.154,70.359-157.154,157.154Z"/>
      <path class="st5" d="M774.5,90.885v471.462c86.795,0,157.154,70.359,157.154,157.154h471.462c0-347.179-281.436-628.615-628.615-628.615Z"/>
      <path class="st5" d="M617.346,719.5H145.885c0,347.179,281.436,628.615,628.615,628.615v-471.462c-86.795,0-157.154-70.359-157.154-157.154Z"/>
      <path class="st5" d="M774.5-223.423c-520.758,0-942.923,422.165-942.923,942.923s422.165,942.923,942.923,942.923,942.923-422.166,942.923-942.923S1295.258-223.423,774.5-223.423ZM1403.115,719.5c0,347.179-281.436,628.615-628.615,628.615v255.375c-488.214,0-883.99-395.777-883.99-883.99h255.375c0-347.179,281.436-628.615,628.615-628.615v-255.375c488.214,0,883.99,395.777,883.99,883.99h-255.375Z"/>
    </g>
  </g>
  <g id="Layer_3">
    <g>
      <path class="st0" d="M885.09,1656c-36.27,4.24-73.18,6.42-110.59,6.42s-74.32-2.18-110.59-6.42h221.18Z"/>
      <path class="st0" d="M1390.02,667.62c-3.6,18.09-4.15,35.21-1.45,51.88h-456.92c0-86.79-70.36-157.15-157.15-157.15V230.01c10.58-1.83,21.21-3.33,31.9-4.47,155.15-16.52,281.51-7.41,385.01,50.24,45.96,25.6,81.52,61.04,108.95,99.17,28.73,43.75,52.15,91.3,69.32,141.74.01.04.03.08.04.12,3.19,10.05,6.05,19.09,8.6,27.29,7.3,25.17,13.07,50.99,17.2,77.36v.03c.25,13.63-1.74,27.21-5.5,46.13Z"/>
      <path class="st0" d="M774.5,562.35v157.15h-157.15c0-86.79,70.36-157.15,157.15-157.15Z"/>
      <path class="st0" d="M774.5,876.65v471.47c-55.57,0-109.46-7.21-160.78-20.75.1-23.75-1.21-47.04-3.81-70.39-4.38-39.49-28.69-82.67-76.94-140.25-48.26-57.75-125.04-195.31-150.25-309.85-5.94-26.97-9.06-56.59-9.5-87.38h244.13c0,86.79,70.36,157.15,157.15,157.15Z"/>
      <path class="st0" d="M931.65,719.5c0,86.79-70.36,157.15-157.15,157.15v-157.15h157.15Z"/>
      <path class="st0" d="M1510.87,925.16c-2.13,29.1-37.32,37.77-50.1,43.76-12.78,5.98-45.86,7.63-12.45,70.64,9.31,17.64,26.29,39.69-17.56,66.91,25.57,13.46,21.98,21.08,22.74,30.98,1.4,17.77-32.29,28.88-19.3,71.55,13.17,42.67,19.22,104.46-22.1,114.68-79.51,19.58-126.96,6.25-178.77,10.19-31.52,2.39-63.29,23.16-70.56,50.88-10.67,41.23-10.96,129.08-1.77,181.25.48,2.75,1.69,7.02,3.4,12.29-86.86,39.49-180.76,66.2-279.31,77.71h-221.18c-38.53-4.5-76.34-11.32-113.31-20.32,4.84-11.25,10.91-27.91,17.33-51.68.46-1.49.91-2.97,1.37-4.45,65.85,15.65,134.56,23.94,205.2,23.94v-255.37c333.64,0,606.57-259.92,627.34-588.32,6.77,13.49,15.88,26.97,27.46,40.72,36.99,43.93,83.87,95.53,81.57,124.64Z"/>
    </g>
    <path class="st3" d="M1656,216v1440h-462.43c-8.81-22.63-30.12-76.03-32.57-90-9.19-52.17-8.9-140.02,1.77-181.25,7.27-27.72,39.04-48.49,70.56-50.88,51.81-3.94,99.26,9.39,178.77-10.19,41.32-10.22,35.27-72.01,22.1-114.68-12.99-42.67,20.7-53.78,19.3-71.55-.76-9.9,2.83-17.52-22.74-30.98,43.85-27.22,26.87-49.27,17.56-66.91-33.41-63.01-.33-64.66,12.45-70.64,12.78-5.99,47.97-14.66,50.1-43.76,2.3-29.11-44.58-80.71-81.57-124.64-36.99-43.94-56.08-87.09-39.28-132.9,20.57-55.97-3.99-69.49-24.88-153.97-20.88-84.49-70.24-180.23-173.73-237.87-103.5-57.65-229.86-66.76-385.01-50.24-146.6,15.68-284.54,97.37-359.07,208.61-64.16,95.98-89.82,258.19-64.61,372.73,25.21,114.54,101.99,252.1,150.25,309.85,48.25,57.58,72.56,100.76,76.94,140.25,10.84,97.29-.84,193.5-41.98,327.02-14.89,55.15-27.93,72-27.93,72H216v-234l.16-.48c-.05-.03-.11-.06-.16-.11V216h1440Z"/>
  </g>
  <g id="Layer_4">
    <g class="st6">
      <g>
        <path class="st0" d="M774.5,877.654c-87.206,0-158.154-70.948-158.154-158.154s70.948-158.154,158.154-158.154,158.154,70.948,158.154,158.154-70.948,158.154-158.154,158.154ZM774.5,563.346c-86.104,0-156.154,70.05-156.154,156.154s70.05,156.154,156.154,156.154,156.154-70.05,156.154-156.154-70.05-156.154-156.154-156.154Z"/>
        <path class="st0" d="M774.5,1663.423c-127.428,0-251.046-24.957-367.418-74.179-112.401-47.542-213.349-115.602-300.036-202.29-86.688-86.688-154.748-187.635-202.29-300.036-49.222-116.372-74.179-239.99-74.179-367.418s24.957-251.046,74.179-367.418C-47.702,239.681,20.358,138.733,107.046,52.046c86.688-86.688,187.635-154.748,300.036-202.29,116.372-49.222,239.99-74.179,367.418-74.179s251.046,24.957,367.418,74.179c112.401,47.542,213.349,115.602,300.036,202.29,86.688,86.688,154.748,187.635,202.29,300.036,49.222,116.372,74.179,239.99,74.179,367.418s-24.957,251.046-74.179,367.418c-47.542,112.401-115.602,213.349-202.29,300.036-86.688,86.688-187.635,154.748-300.036,202.29-116.372,49.222-239.99,74.179-367.418,74.179ZM774.5-222.423c-519.378,0-941.923,422.545-941.923,941.923s422.545,941.923,941.923,941.923,941.923-422.545,941.923-941.923S1293.878-222.423,774.5-222.423Z"/>
        <rect class="st0" x="773.5" y="-302" width="2" height="2043"/>
        <rect class="st0" x="-247" y="718.5" width="2043" height="2"/>
        <path class="st0" d="M774.5,1604.49c-119.473,0-235.372-23.399-344.479-69.547-105.384-44.574-200.028-108.385-281.304-189.66-81.275-81.276-145.086-175.92-189.66-281.305-46.148-109.106-69.547-225.006-69.547-344.479s23.399-235.372,69.547-344.479C3.631,269.637,67.442,174.993,148.717,93.717,229.993,12.442,324.637-51.369,430.021-95.943c109.107-46.148,225.006-69.547,344.479-69.547s235.372,23.399,344.479,69.547c105.385,44.574,200.028,108.385,281.305,189.66,81.275,81.276,145.086,175.92,189.66,281.304,46.147,109.107,69.547,225.006,69.547,344.479s-23.399,235.372-69.547,344.479c-44.574,105.385-108.385,200.028-189.66,281.305-81.276,81.275-175.92,145.086-281.305,189.66-109.106,46.147-225.006,69.547-344.479,69.547ZM774.5-163.49c-486.882,0-882.99,396.108-882.99,882.99s396.108,882.99,882.99,882.99,882.99-396.107,882.99-882.99S1261.383-163.49,774.5-163.49Z"/>
        <path class="st0" d="M774.5,1349.115c-84.997,0-167.452-16.647-245.075-49.479-74.974-31.712-142.308-77.109-200.13-134.932-57.823-57.822-103.22-125.155-134.932-200.13-32.832-77.623-49.479-160.078-49.479-245.075s16.647-167.452,49.479-245.075c31.711-74.974,77.109-142.308,134.932-200.13,57.822-57.823,125.156-103.22,200.13-134.932,77.623-32.832,160.078-49.479,245.075-49.479s167.452,16.647,245.075,49.479c74.975,31.711,142.308,77.109,200.13,134.932,57.822,57.822,103.22,125.156,134.932,200.13,32.831,77.623,49.479,160.078,49.479,245.075s-16.647,167.452-49.479,245.075c-31.712,74.975-77.109,142.308-134.932,200.13s-125.155,103.22-200.13,134.932c-77.623,32.831-160.078,49.479-245.075,49.479ZM774.5,91.885c-346.068,0-627.615,281.547-627.615,627.615s281.547,627.615,627.615,627.615,627.615-281.547,627.615-627.615S1120.568,91.885,774.5,91.885Z"/>
        <rect class="st0" x="-169.423" y="-302" width="2" height="2043"/>
        <rect class="st0" x="1716.423" y="-302" width="2" height="2043"/>
        <rect class="st0" x="1657.49" y="-302" width="2" height="2043"/>
        <rect class="st0" x="1402.115" y="-302" width="2" height="2043"/>
        <rect class="st0" x="930.654" y="-302" width="2" height="2043"/>
        <rect class="st0" x="616.346" y="-302" width="2" height="2043"/>
        <rect class="st0" x="144.885" y="-302" width="2" height="2043"/>
        <rect class="st0" x="-110.49" y="-302" width="2" height="2043"/>
        <rect class="st0" x="-247" y="1661.423" width="2043" height="2"/>
        <rect class="st0" x="-247" y="1602.49" width="2043" height="2"/>
        <rect class="st0" x="-247" y="1347.115" width="2043" height="2"/>
        <rect class="st0" x="-247" y="89.885" width="2043" height="2"/>
        <rect class="st0" x="-247" y="561.346" width="2043" height="2"/>
        <rect class="st0" x="-247" y="875.654" width="2043" height="2"/>
        <rect class="st0" x="-247" y="-165.49" width="2043" height="2"/>
        <rect class="st0" x="-247" y="-224.423" width="2043" height="2"/>
      </g>
    </g>
    <path class="st0" d="M1197.105,1663.423h-660.286l.945-1.526c.144-.232,14.531-23.827,29.2-78.157,40.334-130.907,52.877-228.586,41.952-326.648-4.259-38.396-27.918-81.487-76.713-139.718-25.491-30.505-56.853-80.53-83.894-133.819-22.339-44.022-52.021-110.373-66.566-176.459-12.376-56.229-12.809-125.022-1.218-193.707,11.806-69.959,35.236-133.812,65.974-179.794,36.854-55.007,89.704-103.573,152.835-140.448,63.709-37.212,135.274-60.934,206.959-68.601,171.386-18.25,290.312-2.718,385.603,50.36,102.582,57.134,153.842,162.917,178.778,241.598,27.45,86.612,30.978,97.741,20.325,151.311-9.528,47.92,2.521,88.649,39.064,132.061,3.729,4.429,7.56,8.936,11.43,13.49,35.628,41.927,72.469,85.28,70.373,111.867h0c-1.845,25.208-27.836,35.449-43.364,41.567-2.872,1.132-5.354,2.108-7.309,3.025-1.576.737-3.439,1.406-5.413,2.114-7.066,2.537-15.861,5.693-19.371,14.76-4.255,10.994-.07,28.132,12.794,52.393.706,1.339,1.456,2.701,2.221,4.09,9.324,16.942,20.904,37.977-18.675,63.218,21.273,11.54,21.434,19.198,21.601,27.294.025,1.195.051,2.431.146,3.681.538,6.832-3.722,12.587-8.653,19.251-8.379,11.321-18.807,25.411-10.687,52.084,4.697,15.221,18.712,67.229,1.75,97.235-5.507,9.742-13.772,16.036-24.567,18.706-52.758,12.991-91.973,11.512-126.571,10.206-17.946-.678-34.896-1.316-52.362.011-32.875,2.492-62.826,24.047-69.67,50.137-10.276,39.711-11.128,127.59-1.752,180.822,2.366,13.489,24.416,70.109,33.832,94.287l1.289,3.31ZM540.346,1661.423h653.834l-.227-.583c-9.438-24.233-31.538-80.983-33.938-94.667-9.415-53.452-8.547-141.742,1.787-181.674,7.05-26.879,37.768-49.072,71.453-51.626,17.576-1.336,34.583-.694,52.589-.016,34.467,1.304,73.533,2.776,126.017-10.148,10.238-2.532,18.08-8.504,23.306-17.749,16.568-29.311,2.718-80.634-1.921-95.665-8.415-27.64,2.345-42.178,10.991-53.859,4.693-6.342,8.747-11.818,8.267-17.907-.101-1.307-.126-2.571-.151-3.794-.166-8.012-.309-14.932-22.058-26.38l-1.545-.813,1.483-.921c39.708-24.648,28.94-44.213,19.439-61.475-.77-1.398-1.525-2.771-2.236-4.118-13.15-24.803-17.367-42.483-12.891-54.05,3.84-9.918,13.111-13.246,20.562-15.92,1.928-.692,3.748-1.346,5.239-2.043,2.013-.943,4.521-1.932,7.424-3.076,15.092-5.945,40.35-15.897,42.104-39.852v-.005c2.035-25.763-36.184-70.739-69.903-110.42-3.872-4.556-7.703-9.065-11.435-13.497-36.974-43.92-49.154-85.167-39.496-133.739,10.552-53.067,7.042-64.139-20.271-150.317-24.828-78.335-75.836-183.64-177.845-240.455-94.908-52.864-213.468-68.321-384.418-50.119-145.426,15.554-282.736,95.321-358.345,208.172-62.759,93.884-90.473,253.792-64.465,371.958,25.322,115.044,103.407,253.62,150.041,309.424,49.062,58.551,72.862,101.97,77.167,140.781,10.958,98.351-1.608,196.272-42.018,327.424-12.667,46.918-25.171,71.092-28.54,77.129Z"/>
  </g>
</svg>